<?xml version="1.0" standalone="no"?>
<!DOCTYPE svg PUBLIC "-//W3C//DTD SVG 20010904//EN"
 "http://www.w3.org/TR/2001/REC-SVG-20010904/DTD/svg10.dtd">
<svg version="1.0" xmlns="http://www.w3.org/2000/svg"
 width="260.000000pt" height="260.000000pt" viewBox="0 0 260.000000 260.000000"
 preserveAspectRatio="xMidYMid meet">
<metadata>
Created by potrace 1.11, written by Peter Selinger 2001-2013
</metadata>
<g transform="translate(0.000000,260.000000) scale(0.100000,-0.100000)"
fill="#000000" stroke="none">
<path d="M1910 2002 c-20 -3 -87 -27 -185 -67 -11 -4 -24 -9 -30 -11 -5 -2
-127 -48 -270 -104 -143 -56 -366 -142 -495 -191 -129 -50 -244 -95 -255 -100
-11 -4 -45 -18 -75 -29 -30 -11 -64 -24 -75 -29 -11 -5 -35 -15 -53 -22 -42
-15 -106 -78 -119 -116 -14 -38 -9 -93 11 -131 25 -48 79 -79 206 -118 217
-66 203 -59 222 -123 116 -381 124 -397 208 -419 83 -21 147 4 238 92 l67 64
138 -104 c146 -108 194 -133 255 -136 116 -4 182 71 217 247 8 40 12 58 40
188 20 93 51 241 69 333 3 10 29 138 60 283 31 145 56 278 56 296 0 125 -107
217 -230 197z m-40 -293 c0 -6 -16 -82 -35 -169 -19 -87 -36 -168 -39 -181 -8
-46 -67 -324 -77 -369 -6 -25 -13 -56 -15 -70 -12 -68 -38 -170 -45 -170 -4 0
-69 46 -145 103 -160 119 -176 129 -220 132 -43 3 -64 -10 -139 -84 l-64 -63
-31 104 c-64 210 -75 241 -96 263 -11 12 -58 35 -105 50 -46 15 -87 30 -91 34
-3 3 138 61 315 129 177 68 331 127 342 132 11 5 103 41 205 80 102 39 194 75
205 80 27 12 35 12 35 -1z"/>
</g>
</svg>
